<svg id="b4f5adf6-d65a-45c5-a6be-44d422b0d0b3" data-name="Icon" xmlns="http://www.w3.org/2000/svg" viewBox="0 0 512 512"><defs><style>.\32 e383224-bdb2-4b53-b206-e4bb9701be40{fill:#e60050;}</style></defs><title>icon_feather</title><path class="2e383224-bdb2-4b53-b206-e4bb9701be40" d="M461.83,191c-1.71,7.69-38,31.58-48.06,38.06,15-10.92,37.09-49.26,36.15-53.94-1-5-19.85-16.88-22.82-24.82s-27.79-30.76-27.79-30.76c-1,20.84-20.84,68.48-20.84,68.48,5.95-17.87,11.91-75.43,11.91-75.43s-21.84,8.93-29.78,18.86-31.75,26.79-31.75,26.79S313,188,304,198.93s-23.81,36.72-23.81,36.72L304,162.21s-8.93,3-21.83,15.88S258.38,196,258.38,196s-1,25.8-8.93,42.67c-5.76,12.24-9.95,27.61-11.82,35.13,1.67-11.08-2.57-24.44-6-40.09-4-17.86-12.91-49.62-12.91-49.62A47,47,0,0,1,201.81,197,185.31,185.31,0,0,1,181,204.89s-22.82,6-19.85,19.85-13.89,41.68-13.89,41.68-2-15.88-8.93-40.69c-1.48-5.26-2.41-8.82-3-11.17l-7,5.22c6,13.89,6.95,55.57,6,43.66s-27.79-47.63-27.79-47.63c10.92,18.85-18.86,52.6-15.88,54.58s10.92,20.84,17.86,29.77a15,15,0,0,1,3.06,8.63c-10.7-2.11-19-4.15-22.91-5.65-12.9-5-10.91-7.94-17.86-9.92s-20.84-5-21.83-5-3,5-3,6,30.77,12.9,42.67,15.88c9.5,2.37,43.59,12.31,81.16,14.24,10.46,1,20.47,1.64,29,1.64,35.72,0,75.42-8.93,109.16-24.81,33.53-15.78,89.32-60.54,110.17-103.22C407.25,232.68,352.66,281.31,311,302.15S221.92,329,198.84,330.93c-33.4,2.78-68.25-3.7-90.21-8.85,1,.74,8.55,6.78,18.75,19.77,10.92,13.89,10.92,31.75,10.92,31.75a22.51,22.51,0,0,0,4-17.86c-2-10.92-4-20.84-4-20.84,3,6,18.85,23.82,31.76,27.79s18.85,7.94,28.78,9.92,14.88,8.93,23.81,13.9,22.83,12.9,22.83,12.9c1-5-9.92-16.87-16.87-22.83s-33.74-30.76-33.74-30.76c23.81,21.83,60.54,37.71,86.34,35.72s53.59-7.94,71.45-16.87,44.66-35.73,57.57-48.63,35.72-53.59,39.69-58.55,14.89-26.8,15.88-37.71S463.82,182.06,461.83,191Z"/><path class="2e383224-bdb2-4b53-b206-e4bb9701be40" d="M135.33,214.56l1-.74S133.24,205.83,135.33,214.56Z"/></svg>