<svg id="f62a765b-1a78-42b4-b4d8-b5b0b639efb1" data-name="Icon" xmlns="http://www.w3.org/2000/svg" xmlns:xlink="http://www.w3.org/1999/xlink" viewBox="0 0 512 512"><defs><style>.\36 6edc228-3288-484c-85cb-339deff179e5{fill:none;}.\31 4ce17f0-1260-4d7c-9084-1f5f46abd638{fill:#e60050;}.\34 37dcd02-e334-4883-9f3e-aeaeded0b49d{clip-path:url(#349dbea6-664a-473a-9836-a8d4059fdfbc);}.\38 e9d0299-0a71-47a9-b6bd-afdc0812c7ab{fill:#fff;}.\33 5bd5377-7817-4450-a87a-6a6537c11234{clip-path:url(#16bb7d6b-e091-4062-8bd2-90b68207e3bd);}</style><clipPath id="349dbea6-664a-473a-9836-a8d4059fdfbc"><path class="66edc228-3288-484c-85cb-339deff179e5" d="M128,180.78c33.48-3.29,68.8,4.8,80,17.6s8,41.6,4.8,52.8-19.2,46.4-33.6,57.6-36.8,25.6-80,25.6S41.6,320,32,267.18,46.4,188.78,128,180.78Z"/></clipPath><clipPath id="16bb7d6b-e091-4062-8bd2-90b68207e3bd"><path class="66edc228-3288-484c-85cb-339deff179e5" d="M383.82,180.78c-33.47-3.29-68.8,4.8-80,17.6s-8,41.6-4.8,52.8,19.2,46.4,33.6,57.6,36.8,25.6,80,25.6,57.6-14.4,67.2-67.2S465.42,188.78,383.82,180.78Z"/></clipPath></defs><title>icon_easy</title><path class="14ce17f0-1260-4d7c-9084-1f5f46abd638" d="M369.6,169.58c-51.2,0-54.4,12.8-113.6,12.8s-62.4-12.8-113.6-12.8S17.6,192,0,198.38v30.4s12.8,1.6,16,6.4,8,44.8,11.2,56,8,28.8,12.8,33.6,22.4,19.2,64,17.6,70.4-11.2,91.2-32c9.91-9.92,21.9-27.78,30.4-48,9.33-22.2,15.33-46.4,30.4-46.4s21.07,24.2,30.4,46.4c8.5,20.22,20.49,38.08,30.4,48,20.8,20.8,49.6,30.4,91.2,32s59.2-12.8,64-17.6,9.6-22.4,12.8-33.6,8-51.2,11.2-56,16-6.4,16-6.4v-30.4C494.4,192,420.8,169.58,369.6,169.58Z"/><g class="437dcd02-e334-4883-9f3e-aeaeded0b49d"><polygon class="8e9d0299-0a71-47a9-b6bd-afdc0812c7ab" points="22.74 348.84 1.76 352.34 124.26 140.16 145.24 136.66 22.74 348.84"/></g><g class="35bd5377-7817-4450-a87a-6a6537c11234"><polygon class="8e9d0299-0a71-47a9-b6bd-afdc0812c7ab" points="286.74 334.84 268.76 330.34 391.26 118.16 409.24 122.66 286.74 334.84"/></g></svg>