<svg id="9aa64b05-19b2-4508-9ab8-ae9887e037ac" data-name="Icon" xmlns="http://www.w3.org/2000/svg" viewBox="0 0 512 512"><defs><style>.e7006450-3025-4eaf-b864-735e7886b500{fill:#e60050;}</style></defs><title>icon_strong</title><path class="e7006450-3025-4eaf-b864-735e7886b500" d="M356.56,77.64A29.44,29.44,0,0,0,327.2,107v88.61a29.43,29.43,0,0,0-26.43-16.68H280.22a29.27,29.27,0,0,0-20.77,8.66,36.81,36.81,0,0,0-33.54-21.87H212.69a29.42,29.42,0,0,0-26.42,16.68V65.89A28,28,0,0,0,158.38,38H154a28,28,0,0,0-27.89,27.89V242.05a28.58,28.58,0,0,0,.2,3.23c.39,8.63,1.28,27.86,2.41,46.4,15.42-29.73,39-73.67,48.08-82.11,14.5-13.53,31.06-13.22,49.24.92,9.37,7.29,43.54,21.72,66.14,31.27,14.91,6.29,23.49,10,26.62,11.83a19,19,0,0,1,9.5,15.74c.4,10.92-7.8,22.39-24.39,34.1-17,12-33.28,16.42-49.2,13.25a196.4,196.4,0,0,1,20.14,41.6l-11.21,3.89c-11.51-33.15-29-53-30.25-54.35l-.52-.52a5.93,5.93,0,0,1,7.33-9.24c11.55,7.22,30,14.63,56.87-4.33,17.82-12.58,19.48-20.94,19.37-24a7.32,7.32,0,0,0-3.75-6c-2.56-1.54-13.52-6.17-25.12-11.07-25.94-10.95-58.21-24.58-68.82-32.84-13.6-10.57-23.72-11-33.85-1.6-8.06,7.52-35.43,58.58-54.6,96.31.55,6.74,1.12,12.48,1.68,16.31,1.4,9.46,13.62,39.48,33.77,68.28V474H346.28V410.19c20.49-26.1,33.11-57.05,35.24-79.32,3.69-38.75,4.28-75.93,4.38-87,0-.13,0-.25,0-.38V107A29.44,29.44,0,0,0,356.56,77.64Z"/></svg>