<?xml version="1.0" encoding="utf-8"?>
<!-- Generator: Adobe Illustrator 16.0.0, SVG Export Plug-In . SVG Version: 6.00 Build 0)  -->
<!DOCTYPE svg PUBLIC "-//W3C//DTD SVG 1.1//EN" "http://www.w3.org/Graphics/SVG/1.1/DTD/svg11.dtd">
<svg version="1.1" id="Ebene_1" xmlns="http://www.w3.org/2000/svg" xmlns:xlink="http://www.w3.org/1999/xlink" x="0px" y="0px"
	 width="274px" height="63px" viewBox="0 0 274 63" enable-background="new 0 0 274 63" xml:space="preserve">
<g>
	<g>
		<path fill="#929793" d="M0.152,17.304c0-3.129,2.539-5.667,5.668-5.667l33.305,0.005v33.299c0,3.13-2.537,5.667-5.668,5.667
			L0.152,50.615V17.304z"/>
		
			<linearGradient id="SVGID_1_" gradientUnits="userSpaceOnUse" x1="101.7388" y1="-173.3774" x2="135.8849" y2="-207.5236" gradientTransform="matrix(1 0 0 -1 -99.1753 -159.3252)">
			<stop  offset="0" style="stop-color:#C9CCC9"/>
			<stop  offset="0.1089" style="stop-color:#B6BAB7"/>
			<stop  offset="0.245" style="stop-color:#A6ABA7"/>
			<stop  offset="0.4046" style="stop-color:#9B9F9B"/>
			<stop  offset="0.6076" style="stop-color:#949A95"/>
			<stop  offset="1" style="stop-color:#929793"/>
		</linearGradient>
		<path fill="url(#SVGID_1_)" d="M38.059,12.708v32.234c0,2.542-2.06,4.603-4.602,4.603L1.218,49.55V17.304
			c0-2.542,2.06-4.602,4.601-4.602L38.059,12.708z"/>
		<path fill="#FFFFFF" d="M36.079,20.076c-15.178,0-27.485,12.29-27.512,27.461H3.2c0.026-18.135,14.736-32.829,32.878-32.829
			V20.076z M36.079,24.442c-12.769,0-23.12,10.335-23.146,23.095h-2.397c0.025-14.084,11.451-25.493,25.542-25.493L36.079,24.442
			L36.079,24.442z M36.079,27.939c-10.835,0-19.622,8.77-19.647,19.598h-1.054c0.027-11.409,9.285-20.651,20.702-20.651V27.939z
			 M36.079,32.803c-8.149,0-14.759,6.593-14.785,14.734h-0.729c0.026-8.544,6.961-15.463,15.513-15.463V32.803z"/>
		<path fill="#FFFFFF" d="M36.079,20.076c-15.178,0-27.485,12.29-27.512,27.461H3.2c0.026-18.135,14.736-32.829,32.878-32.829
			V20.076z M36.079,24.442c-12.769,0-23.12,10.335-23.146,23.095h-2.397c0.025-14.084,11.451-25.493,25.542-25.493L36.079,24.442
			L36.079,24.442z M36.079,27.939c-10.835,0-19.622,8.77-19.647,19.598h-1.054c0.027-11.409,9.285-20.651,20.702-20.651V27.939z
			 M36.079,32.803c-8.149,0-14.759,6.593-14.785,14.734h-0.729c0.026-8.544,6.961-15.463,15.513-15.463V32.803z"/>
	</g>
	<path fill="#05509E" d="M244.34,22.167l-0.532-8.68c3.104-0.963,8.399-2.448,12.713-2.448c13.845,0,17.023,5.639,17.023,14.243
		v14.093c0,5.714,0.076,8.31,0.304,10.906h-10.896l-0.304-5.341h-0.15c-0.53,2.373-5.145,5.934-10.82,5.934
		c-7.338,0-12.183-4.671-12.183-11.72c0-12.909,15.359-12.981,19.522-12.981h3.631c0-7.419-5.599-7.419-7.34-7.419
		C252.282,18.753,249.029,19.421,244.34,22.167z M218.074,50.281V19.718c0-3.71-0.075-6.082-0.303-8.085h10.896
		c0.077,2.299,0.227,4.673,0.304,6.973h0.15c2.422-4.154,4.086-7.567,10.971-7.567h1.742V21.87
		c-1.287-0.297-2.346-0.447-4.012-0.447c-6.959,0-7.794,5.935-7.794,11.572v17.286H218.074z M188.33,19.867v-8.234h6.809V3.695
		l11.651-3.634v11.572h7.72v8.234h-7.72v17.729c0,3.784,1.742,4.82,4.012,4.82c1.664,0,2.725-0.296,3.936-0.814v8.233
		c-1.211,0.446-4.465,1.039-8.323,1.039c-6.204,0-11.576-2.967-11.576-11.422V19.867H188.33z M187.335,40.414l0.381,8.827
		c-3.482,0.891-7.039,1.633-10.822,1.633c-15.208,0-18.612-12.463-18.612-19.51c0-11.868,6.963-20.326,19.522-20.326
		c3.933,0,6.052,0.964,9.533,1.856l-0.607,8.828c-2.192-0.816-4.464-1.633-6.961-1.633c-9.08,0-9.08,9.792-9.08,11.275
		c0,8.16,5.146,10.756,9.687,10.756C182.872,42.12,185.143,41.232,187.335,40.414z M155.627,31.216v2.818h-23.23
		c0,4.601,3.026,8.828,9.761,8.828c4.087,0,8.173-1.482,11.123-3.042l0.226,8.827c-3.858,1.411-8.397,2.227-12.483,2.227
		c-13.846,0-19.975-8.234-19.975-20.028c0-10.386,6.203-19.808,17.478-19.808C142.083,11.038,155.627,11.038,155.627,31.216z
		 M132.397,27.656h12.335c0-4.897-1.29-9.495-6.207-9.495C132.397,18.161,132.397,25.579,132.397,27.656z M105.824,30.919
		c0-4.005-0.303-11.423-5.75-11.423c-4.918,0-5.979,6.973-5.979,11.423c0,6.159,1.135,11.944,5.979,11.944
		C105.37,42.863,105.824,37.078,105.824,30.919z M82.141,62.773V20.311c0-4.896-0.152-6.897-0.303-8.678h11.35
		c0.15,1.483,0.302,3.487,0.302,6.157h0.151c1.211-2.374,3.86-6.751,10.745-6.751c8.853,0,13.846,8.532,13.846,20.847
		c0,10.385-3.934,18.989-13.846,18.989c-5.523,0-8.701-2.818-10.139-6.305h-0.152v18.204H82.141z M76.462,12.598l-0.303,8.753
		c-3.179-1.261-6.128-2.077-9.609-2.077c-3.103,0-4.465,1.484-4.465,2.819c0,2.374,1.74,3.189,8.247,5.564
		c4.086,1.483,8.249,4.005,8.249,11.274c0,8.605-6.583,11.943-14.528,11.943c-3.482,0-8.777-0.369-12.939-1.854l0.303-9.052
		c2.875,1.708,6.507,2.671,9.836,2.671c5.6,0,5.976-1.928,5.976-3.633c0-1.708-3.101-2.45-8.246-4.526
		c-4.162-1.707-8.247-4.97-8.247-11.869c0-4.155,3.026-11.574,14.753-11.574C70.408,11.038,74.495,11.93,76.462,12.598z
		 M262.648,33.888v-2.227c-4.767,0-12.258,0.298-12.258,6.75c0,5.045,4.161,5.045,5.145,5.045
		C256.596,43.456,262.648,43.309,262.648,33.888z"/>
	<path fill="#929793" d="M267.964,62.789h1.2V59.83c0-1.554,0.615-2.632,1.983-2.632c1.049,0.062,1.38,0.79,1.38,2.282v3.309h1.202
		v-3.798c0-1.718-0.753-2.745-2.442-2.745c-0.907,0-1.776,0.438-2.135,1.164l-0.025-1.016h-1.163V62.789z M260.331,59.593
		c0-1.218,0.753-2.395,2.046-2.395c1.279,0,2.032,1.177,2.032,2.395c0,1.141-0.626,2.394-2.032,2.394
		C260.957,61.986,260.331,60.733,260.331,59.593z M259.053,59.593c0,1.83,1.354,3.347,3.324,3.347c1.955,0,3.312-1.517,3.312-3.347
		c0-1.944-1.33-3.347-3.312-3.347C260.382,56.246,259.053,57.648,259.053,59.593z M256.7,53.639h-1.355v1.328h1.355V53.639z
		 M255.422,62.789h1.202v-6.394h-1.202V62.789z M253.096,56.396h-1.725V54.54l-1.203,0.376v1.479h-1.472v0.953h1.472v3.735
		c0,1.28,0.768,1.855,2.008,1.855c0.384,0,0.753-0.1,1.022-0.176v-1.003c-0.18,0.113-0.448,0.226-0.818,0.226
		c-0.549,0-1.01-0.4-1.01-1.14v-3.498h1.725L253.096,56.396L253.096,56.396z M245.732,60.307c0,0.952-0.626,1.68-1.814,1.68
		c-0.552,0-1.215-0.363-1.215-1.041c0-1.128,1.609-1.229,2.264-1.229c0.255,0,0.511,0.027,0.767,0.027L245.732,60.307
		L245.732,60.307z M242.229,57.851c0.487-0.401,1.217-0.652,1.894-0.652c1.201,0,1.61,0.563,1.61,1.666
		c-0.473-0.023-0.805-0.023-1.278-0.023c-1.24,0-3.03,0.502-3.03,2.106c0,1.392,0.984,1.992,2.391,1.992
		c1.101,0,1.739-0.588,2.021-0.978l0.025,0.827h1.127c-0.026-0.188-0.052-0.527-0.052-1.253v-2.646c0-1.743-0.754-2.645-2.621-2.645
		c-0.831,0-1.548,0.251-2.149,0.602L242.229,57.851z M229.813,62.789h1.203v-3.221c0-1.193,0.484-2.37,1.712-2.37
		c0.973,0,1.165,0.99,1.165,1.78v3.811h1.201v-3.221c0-1.193,0.486-2.37,1.714-2.37c0.973,0,1.164,0.99,1.164,1.78v3.811h1.2v-4.1
		c0-1.392-0.6-2.443-2.263-2.443c-0.588,0-1.572,0.325-2.02,1.24c-0.346-0.864-1.1-1.24-1.854-1.24
		c-0.958,0-1.611,0.338-2.072,1.077l-0.025-0.929h-1.125V62.789L229.813,62.789z M222.193,59.593c0-1.218,0.755-2.395,2.047-2.395
		c1.278,0,2.033,1.177,2.033,2.395c0,1.141-0.626,2.394-2.033,2.394C222.821,61.986,222.193,60.733,222.193,59.593z M220.915,59.593
		c0,1.83,1.357,3.347,3.325,3.347c1.957,0,3.312-1.517,3.312-3.347c0-1.944-1.328-3.347-3.312-3.347
		C222.245,56.246,220.915,57.648,220.915,59.593z M219.178,56.396h-1.726V54.54l-1.203,0.376v1.479h-1.469v0.953h1.469v3.735
		c0,1.28,0.769,1.855,2.009,1.855c0.384,0,0.754-0.1,1.021-0.176v-1.003c-0.176,0.113-0.445,0.226-0.815,0.226
		c-0.551,0-1.011-0.4-1.011-1.14v-3.498h1.726V56.396L219.178,56.396z M213.003,56.396H211.8v2.96c0,1.555-0.612,2.631-1.98,2.631
		c-1.049-0.062-1.381-0.789-1.381-2.28v-3.311h-1.2v3.799c0,1.718,0.753,2.745,2.44,2.745c0.907,0,1.777-0.439,2.135-1.166
		l0.025,1.016h1.163L213.003,56.396L213.003,56.396z M202.686,59.554h-3.556l1.779-4.336L202.686,59.554z M196.471,62.789h1.343
		l0.907-2.206h4.374l0.909,2.206h1.393l-3.772-8.75h-1.342L196.471,62.789z M185.54,55.969c0-0.751,0.487-1.127,1.075-1.127
		c0.613,0,1.06,0.275,1.06,1.077c0,0.74-0.804,1.279-1.342,1.53C185.951,57.034,185.54,56.56,185.54,55.969z M184.621,60.407
		c0-0.866,0.575-1.277,1.253-1.729l2.147,2.469c-0.28,0.313-0.818,0.84-1.649,0.84C185.451,61.986,184.621,61.372,184.621,60.407z
		 M189.287,58.064c-0.064,1.002-0.203,1.577-0.549,2.118l-1.815-2.031c0.945-0.413,1.955-1.166,1.955-2.282
		c0-1.377-1.048-1.979-2.212-1.979c-1.278,0-2.326,0.65-2.326,2.055c0,0.841,0.447,1.428,0.921,1.993
		c-1.204,0.478-1.997,1.229-1.997,2.557c0,1.468,1.114,2.445,2.879,2.445c1.138,0,1.917-0.287,2.557-1.003l0.727,0.853h1.599
		l-1.559-1.729c0.511-0.766,0.907-1.58,1.022-2.996H189.287L189.287,58.064z M176.914,54.266c-0.64-0.275-1.318-0.376-2.009-0.376
		c-2.724,0-4.717,1.792-4.717,4.485c0,2.783,1.879,4.564,4.705,4.564c0.523,0,1.354-0.038,2.033-0.313l-0.077-1.217
		c-0.449,0.264-1.305,0.427-1.943,0.427c-1.854,0-3.363-1.366-3.363-3.422c0-1.969,1.369-3.422,3.429-3.422
		c0.651,0,1.277,0.162,1.842,0.488L176.914,54.266z M162.798,62.789h1.279v-3.497h1.252c1.611,0,3.159-0.691,3.159-2.633
		c0-1.993-1.521-2.62-3.35-2.62h-2.341V62.789L162.798,62.789z M164.077,55.142h1.086c0.795,0,1.969,0.402,1.969,1.504
		c0,1.154-0.997,1.543-1.789,1.543h-1.266V55.142z M157.303,59.893h3.285V58.94h-3.285V59.893z M150.911,58.979
		c0.091-0.828,0.575-1.78,1.751-1.78c1.035,0,1.624,0.802,1.624,1.78H150.911z M155.064,61.348
		c-0.292,0.238-1.211,0.639-2.006,0.639c-1.137,0-2.147-0.865-2.147-2.129h4.654c0-2.058-0.702-3.611-2.877-3.611
		c-1.841,0-3.056,1.341-3.056,3.234c0,2.08,1.061,3.459,3.376,3.459c1.075,0,1.599-0.251,2.059-0.414v-1.178H155.064z
		 M147.283,53.639h-1.355v1.328h1.355V53.639z M146.004,62.789h1.201v-6.394h-1.201V62.789z M140.213,62.789h1.202V59.88
		c0-1.604,0.701-2.606,1.776-2.606c0.205,0,0.448,0.024,0.666,0.112v-1.052c-0.257-0.051-0.436-0.088-0.794-0.088
		c-0.69,0-1.38,0.477-1.7,1.14l-0.024-0.991h-1.126V62.789L140.213,62.789z M138.039,56.396h-1.726V54.54l-1.203,0.376v1.479h-1.469
		v0.953h1.469v3.735c0,1.28,0.769,1.855,2.009,1.855c0.384,0,0.755-0.1,1.022-0.176v-1.003c-0.178,0.113-0.447,0.226-0.818,0.226
		c-0.549,0-1.01-0.4-1.01-1.14v-3.498h1.726V56.396L138.039,56.396z M128.387,62.588c0.551,0.288,1.177,0.351,1.79,0.351
		c1.164,0,2.276-0.625,2.276-1.993c0-2.043-2.826-1.667-2.826-2.97c0-0.527,0.538-0.778,1.152-0.778
		c0.281,0,0.996,0.162,1.265,0.326l0.103-1.028c-0.473-0.137-0.935-0.251-1.496-0.251c-1.291,0-2.302,0.639-2.302,1.968
		c0,1.793,2.826,1.693,2.826,2.859c0,0.689-0.678,0.913-1.227,0.913c-0.346,0-1.023-0.148-1.497-0.449L128.387,62.588z
		 M126.228,56.396h-1.202v2.96c0,1.555-0.613,2.631-1.981,2.631c-1.049-0.062-1.38-0.789-1.38-2.28v-3.311h-1.202v3.799
		c0,1.718,0.753,2.745,2.441,2.745c0.909,0,1.779-0.439,2.136-1.166l0.026,1.016h1.165v-6.394H126.228z M112.828,59.568
		c-0.025-1.166,0.485-2.37,1.79-2.37c1.304,0,1.93,1.217,1.93,2.407c0,1.065-0.561,2.381-1.917,2.381
		C113.34,61.986,112.803,60.571,112.828,59.568z M116.6,62.789h1.152v-9.401h-1.203v3.886c-0.395-0.589-1.047-1.027-2.187-1.027
		c-1.893,0-2.813,1.516-2.813,3.234c0,1.741,0.832,3.459,2.8,3.459c1.164,0,1.906-0.575,2.225-1.053L116.6,62.789z M103.508,62.789
		h1.201V59.83c0-1.554,0.615-2.632,1.982-2.632c1.049,0.062,1.382,0.79,1.382,2.282v3.309h1.202v-3.798
		c0-1.718-0.755-2.745-2.442-2.745c-0.909,0-1.777,0.438-2.135,1.164l-0.025-1.016h-1.164V62.789L103.508,62.789z M99.405,62.789
		h1.278v-8.75h-1.278V62.789z"/>
</g>
</svg>
